REM DIRINDEX 1\3,1\2\4,1\2\5,1\2\6
REM DIRNAME cjc137,folder01,folder02,folder03,folder04,folder05
TITLE ""
FILE "081.mp3" MP3
  TRACK 01 AUDIO
    TITLE "0:"
    INDEX 01 00:00:00
  TRACK 02 AUDIO
    TITLE "4:cjc137_3321"
    INDEX 01 00:00:27
  TRACK 03 AUDIO
    TITLE "0:"
    INDEX 01 00:01:36
  TRACK 04 AUDIO
    TITLE "6:cjc137_3322"
    INDEX 01 00:01:40
  TRACK 05 AUDIO
    TITLE "0:"
    INDEX 01 00:02:47
  TRACK 06 AUDIO
    TITLE "5:cjc137_3323"
    INDEX 01 00:02:51
  TRACK 07 AUDIO
    TITLE "0:"
    INDEX 01 00:03:59
  TRACK 08 AUDIO
    TITLE "4:cjc137_3324"
    INDEX 01 00:04:68
  TRACK 09 AUDIO
    TITLE "0:"
    INDEX 01 00:06:22
  TRACK 10 AUDIO
    TITLE "6:cjc137_3325"
    INDEX 01 00:06:26
  TRACK 11 AUDIO
    TITLE "0:"
    INDEX 01 00:07:47
  TRACK 12 AUDIO
    TITLE "5:cjc137_3326"
    INDEX 01 00:07:52
  TRACK 13 AUDIO
    TITLE "0:"
    INDEX 01 00:09:08
  TRACK 14 AUDIO
    TITLE "4:cjc137_3327"
    INDEX 01 00:10:14
  TRACK 15 AUDIO
    TITLE "0:"
    INDEX 01 00:11:31
  TRACK 16 AUDIO
    TITLE "6:cjc137_3328"
    INDEX 01 00:11:40
  TRACK 17 AUDIO
    TITLE "0:"
    INDEX 01 00:12:50
  TRACK 18 AUDIO
    TITLE "5:cjc137_3329"
    INDEX 01 00:12:54
  TRACK 19 AUDIO
    TITLE "0:"
    INDEX 01 00:13:69
  TRACK 20 AUDIO
    TITLE "4:cjc137_3330"
    INDEX 01 00:15:09
  TRACK 21 AUDIO
    TITLE "0:"
    INDEX 01 00:16:34
  TRACK 22 AUDIO
    TITLE "6:cjc137_3331"
    INDEX 01 00:16:36
  TRACK 23 AUDIO
    TITLE "0:"
    INDEX 01 00:17:70
  TRACK 24 AUDIO
    TITLE "5:cjc137_3332"
    INDEX 01 00:17:74
  TRACK 25 AUDIO
    TITLE "0:"
    INDEX 01 00:19:24
  TRACK 26 AUDIO
    TITLE "4:cjc137_3333"
    INDEX 01 00:20:30
  TRACK 27 AUDIO
    TITLE "0:"
    INDEX 01 00:21:49
  TRACK 28 AUDIO
    TITLE "6:cjc137_3334"
    INDEX 01 00:21:53
  TRACK 29 AUDIO
    TITLE "0:"
    INDEX 01 00:22:44
  TRACK 30 AUDIO
    TITLE "5:cjc137_3335"
    INDEX 01 00:22:50
  TRACK 31 AUDIO
    TITLE "0:"
    INDEX 01 00:23:69
  TRACK 32 AUDIO
    TITLE "4:cjc137_3336"
    INDEX 01 00:24:74
  TRACK 33 AUDIO
    TITLE "0:"
    INDEX 01 00:26:09
  TRACK 34 AUDIO
    TITLE "6:cjc137_3337"
    INDEX 01 00:26:15
  TRACK 35 AUDIO
    TITLE "0:"
    INDEX 01 00:27:61
  TRACK 36 AUDIO
    TITLE "5:cjc137_3338"
    INDEX 01 00:27:65
  TRACK 37 AUDIO
    TITLE "0:"
    INDEX 01 00:29:01
  TRACK 38 AUDIO
    TITLE "4:cjc137_3339"
    INDEX 01 00:30:08
  TRACK 39 AUDIO
    TITLE "0:"
    INDEX 01 00:31:12
  TRACK 40 AUDIO
    TITLE "6:cjc137_3340"
    INDEX 01 00:31:22
  TRACK 41 AUDIO
    TITLE "0:"
    INDEX 01 00:32:07
  TRACK 42 AUDIO
    TITLE "5:cjc137_3341"
    INDEX 01 00:32:15
  TRACK 43 AUDIO
    TITLE "0:"
    INDEX 01 00:33:17
  TRACK 44 AUDIO
    TITLE "4:cjc137_3342"
    INDEX 01 00:34:28
  TRACK 45 AUDIO
    TITLE "0:"
    INDEX 01 00:35:37
  TRACK 46 AUDIO
    TITLE "6:cjc137_3343"
    INDEX 01 00:35:41
  TRACK 47 AUDIO
    TITLE "0:"
    INDEX 01 00:36:31
  TRACK 48 AUDIO
    TITLE "5:cjc137_3344"
    INDEX 01 00:36:36
  TRACK 49 AUDIO
    TITLE "0:"
    INDEX 01 00:37:44
  TRACK 50 AUDIO
    TITLE "4:cjc137_3345"
    INDEX 01 00:38:51
  TRACK 51 AUDIO
    TITLE "0:"
    INDEX 01 00:39:47
  TRACK 52 AUDIO
    TITLE "6:cjc137_3346"
    INDEX 01 00:39:54
  TRACK 53 AUDIO
    TITLE "0:"
    INDEX 01 00:40:64
  TRACK 54 AUDIO
    TITLE "5:cjc137_3347"
    INDEX 01 00:40:70
  TRACK 55 AUDIO
    TITLE "0:"
    INDEX 01 00:41:69
  TRACK 56 AUDIO
    TITLE "4:cjc137_3348"
    INDEX 01 00:42:74
  TRACK 57 AUDIO
    TITLE "0:"
    INDEX 01 00:44:01
  TRACK 58 AUDIO
    TITLE "6:cjc137_3349"
    INDEX 01 00:44:07
  TRACK 59 AUDIO
    TITLE "0:"
    INDEX 01 00:45:12
  TRACK 60 AUDIO
    TITLE "5:cjc137_3350"
    INDEX 01 00:45:14
  TRACK 61 AUDIO
    TITLE "0:"
    INDEX 01 00:46:17
  TRACK 62 AUDIO
    TITLE "4:cjc137_3351"
    INDEX 01 00:47:23
  TRACK 63 AUDIO
    TITLE "0:"
    INDEX 01 00:48:34
  TRACK 64 AUDIO
    TITLE "6:cjc137_3352"
    INDEX 01 00:48:38
  TRACK 65 AUDIO
    TITLE "0:"
    INDEX 01 00:49:23
  TRACK 66 AUDIO
    TITLE "5:cjc137_3353"
    INDEX 01 00:49:27
  TRACK 67 AUDIO
    TITLE "0:"
    INDEX 01 00:50:37
  TRACK 68 AUDIO
    TITLE "4:cjc137_3354"
    INDEX 01 00:51:46
  TRACK 69 AUDIO
    TITLE "0:"
    INDEX 01 00:52:67
  TRACK 70 AUDIO
    TITLE "6:cjc137_3355"
    INDEX 01 00:52:71
  TRACK 71 AUDIO
    TITLE "0:"
    INDEX 01 00:54:13
  TRACK 72 AUDIO
    TITLE "5:cjc137_3356"
    INDEX 01 00:54:17
  TRACK 73 AUDIO
    TITLE "0:"
    INDEX 01 00:55:38
  TRACK 74 AUDIO
    TITLE "4:cjc137_3357"
    INDEX 01 00:56:49
  TRACK 75 AUDIO
    TITLE "0:"
    INDEX 01 00:57:72
  TRACK 76 AUDIO
    TITLE "6:cjc137_3358"
    INDEX 01 00:58:03
  TRACK 77 AUDIO
    TITLE "0:"
    INDEX 01 00:59:24
  TRACK 78 AUDIO
    TITLE "5:cjc137_3359"
    INDEX 01 00:59:32
  TRACK 79 AUDIO
    TITLE "0:"
    INDEX 01 01:00:53
  TRACK 80 AUDIO
    TITLE "4:cjc137_3360"
    INDEX 01 01:01:62
  TRACK 81 AUDIO
    TITLE "0:"
    INDEX 01 01:03:04
  TRACK 82 AUDIO
    TITLE "6:cjc137_3361"
    INDEX 01 01:03:10
  TRACK 83 AUDIO
    TITLE "0:"
    INDEX 01 01:04:21
  TRACK 84 AUDIO
    TITLE "5:cjc137_3362"
    INDEX 01 01:04:27
  TRACK 85 AUDIO
    TITLE "0:"
    INDEX 01 01:05:42
